<svg width="196" height="24" viewBox="0 0 196 24" fill="none" xmlns="http://www.w3.org/2000/svg">
<path d="M25.2036 22.8712V23.4731C23.398 23.3978 22.1942 23.3226 21.5923 23.3226C20.9905 23.3226 19.9372 23.3226 18.2068 23.4731V22.8712C18.9591 22.8712 19.4858 22.7207 19.7115 22.4198C20.0124 22.1188 20.1629 21.517 20.1629 20.7646V12.1126C20.1629 11.3603 20.1629 10.7584 20.0124 10.2318C19.9372 9.78035 19.7115 9.40418 19.4105 9.10324C19.1096 8.8023 18.583 8.65184 17.9058 8.65184C17.2287 8.65184 16.4764 8.87754 15.8745 9.40418C15.2726 9.85559 14.746 10.5327 14.4451 11.3603C14.0689 12.1879 13.9184 13.0907 13.9184 14.144V20.8398C13.9184 21.6674 14.0689 22.1941 14.4451 22.495C14.8212 22.7959 15.3479 22.9464 16.2507 22.9464V23.5483C14.4451 23.4731 13.2413 23.3978 12.6394 23.3978C12.0375 23.3978 10.9843 23.3978 9.25386 23.5483V22.9464C10.0062 22.9464 10.5328 22.7959 10.7586 22.495C11.0595 22.1941 11.21 21.5922 11.21 20.8398V12.1879C11.21 11.4355 11.21 10.8336 11.0595 10.307C10.9843 9.85559 10.7586 9.47942 10.4576 9.17848C10.1567 8.87754 9.63004 8.72706 8.95293 8.72706C8.27581 8.72706 7.52346 8.95277 6.92159 9.47941C6.31971 9.93082 5.79307 10.6079 5.49213 11.4355C5.11595 12.2631 4.96549 13.1659 4.96549 14.2192V20.8398C4.96549 21.6674 5.11595 22.1941 5.41689 22.495C5.71783 22.7959 6.24447 22.9464 6.99682 22.9464V23.5483C5.34166 23.4731 4.21314 23.3978 3.61126 23.3978C3.00939 23.3978 1.88087 23.3978 0 23.5483V22.9464C0.827581 22.9464 1.42946 22.7959 1.7304 22.495C2.10657 22.1941 2.25704 21.5922 2.25704 20.8398V11.4355C2.25704 10.5327 2.10657 9.85559 1.7304 9.40418C1.35422 9.02801 0.827581 8.8023 0 8.8023V8.20042C0.601877 8.20042 1.27899 8.27566 1.88087 8.27566C3.15986 8.27566 4.21314 8.12519 5.04072 7.82425V11.3603C5.49213 10.1565 6.16924 9.17848 7.07206 8.65184C7.97487 8.04996 8.87769 7.74902 9.93097 7.74902C10.9843 7.74902 12.3385 8.1252 13.0156 8.87754C13.5422 9.40419 13.8432 10.2318 13.9184 11.2851C14.4451 10.0061 15.1222 9.10324 16.025 8.5766C16.9278 8.04996 17.9058 7.74902 18.9591 7.74902C20.0124 7.74902 21.3666 8.1252 22.0438 8.87754C22.4199 9.25372 22.6456 9.78036 22.7961 10.3822C22.9466 10.9841 23.0218 11.8117 23.0218 12.7897V20.7646C23.0218 21.5922 23.1723 22.1188 23.5484 22.4198C23.9246 22.7207 24.4513 22.8712 25.3541 22.8712H25.2036Z" fill="white"/>
<path d="M37.6177 19.7869C37.6177 21.1411 37.091 22.1191 36.113 22.8715C35.1349 23.6238 33.9312 24 32.5017 24C31.0722 24 30.8465 23.8495 30.1694 23.6238C29.718 23.3981 29.3418 23.0972 28.9657 22.7962C28.8904 22.721 28.8152 22.6458 28.6647 22.6458C28.5143 22.6458 28.3638 22.721 28.2886 22.9467C28.1381 23.1724 28.0628 23.3981 28.0628 23.7743H27.3857C27.3857 22.6458 27.461 20.6144 27.461 17.7555H28.1381C28.3638 19.6364 28.74 21.0658 29.3418 21.9687C29.9437 22.8715 30.9218 23.3981 32.3512 23.3981C33.7807 23.3981 33.7055 23.1724 34.2321 22.721C34.7587 22.2696 35.0597 21.5173 35.0597 20.5392C35.0597 19.5612 34.834 19.1097 34.3073 18.5831C33.7807 18.0565 32.9531 17.3793 31.6741 16.627C30.6961 16.0251 29.9437 15.4985 29.4171 15.1223C28.8904 14.7461 28.439 14.2195 28.0628 13.6176C27.6867 13.0157 27.5362 12.3386 27.5362 11.5863C27.5362 10.3073 27.9876 9.32923 28.8152 8.72735C29.6428 8.05024 30.6961 7.74931 31.9751 7.74931C33.254 7.74931 33.3293 7.82454 33.8559 8.05025C34.3826 8.27595 34.834 8.50165 35.2101 8.80259C35.4358 8.95306 35.5863 9.0283 35.7368 9.0283C36.113 9.0283 36.3387 8.57689 36.4139 7.67407H37.091C37.091 8.65212 36.9405 10.3825 36.9405 12.79H36.2634C36.0377 11.4358 35.5863 10.3825 34.9844 9.55494C34.3826 8.72736 33.4045 8.27595 32.2008 8.27595C30.997 8.27595 30.9218 8.50166 30.4704 8.87783C30.019 9.254 29.7932 9.85588 29.7932 10.533C29.7932 11.2101 30.019 11.812 30.5456 12.2634C30.997 12.7148 31.8246 13.3167 32.8779 13.9186C33.0283 13.9938 33.3293 14.2195 33.7054 14.4452C34.6083 15.0471 35.3606 15.5737 35.9625 16.0251C36.4891 16.4765 36.9405 17.0032 37.3167 17.605C37.6929 18.2069 37.8434 18.884 37.8434 19.7116L37.6177 19.7869Z" fill="white"/>
<path d="M153.179 22.4952C152.878 22.2695 152.577 21.8933 152.2 21.3666L146.784 13.9936L150.47 10.1567C151.298 9.3291 152.2 8.80245 153.179 8.72721V8.12535C152.351 8.20058 151.523 8.27581 150.545 8.27581C149.567 8.27581 148.514 8.27582 147.16 8.12535V8.72721C147.837 8.72721 148.364 8.80245 148.74 8.95292C149.116 9.10339 149.342 9.40433 149.342 9.70527C149.342 10.0062 149.041 10.6833 148.364 11.3604L146.106 13.6927C145.73 14.0689 145.354 14.2946 144.978 14.5203C144.602 14.6708 144.075 14.8212 143.548 14.8965V0C142.721 0.300939 141.668 0.451401 140.464 0.451401C139.26 0.451401 139.26 0.451408 138.583 0.376173V0.978053C139.411 0.978053 140.012 1.20375 140.313 1.57992C140.69 2.03133 140.84 2.63322 140.84 3.61127V20.7648C140.84 21.5923 140.69 22.119 140.313 22.4199C139.937 22.7209 139.411 22.8713 138.583 22.8713V23.4732C140.389 23.398 141.592 23.3227 142.194 23.3227C142.796 23.3227 143.849 23.3227 145.505 23.4732V22.8713C144.752 22.8713 144.226 22.7209 144 22.4199C143.699 22.119 143.548 21.5171 143.548 20.7648V15.5736C144.075 15.5736 144.527 15.724 144.827 15.8745C145.128 16.025 145.429 16.4012 145.806 16.8526L149.266 21.8933C149.417 22.0437 149.417 22.1942 149.417 22.3447C149.417 22.4952 149.342 22.6456 149.191 22.7209C149.041 22.7961 148.815 22.8713 148.514 22.8713V23.4732C150.169 23.398 151.298 23.3227 151.824 23.3227C152.351 23.3227 153.028 23.3227 154.232 23.4732V22.8713C153.78 22.8713 153.479 22.6456 153.179 22.4199V22.4952Z" fill="white"/>
<path d="M57.6301 22.1189C57.4043 22.3446 57.1786 22.4951 56.9529 22.5703C56.7272 22.6455 56.5015 22.7208 56.2758 22.7208C56.0501 22.7208 55.6739 22.6455 55.5235 22.4198C55.373 22.1941 55.2978 21.8179 55.2978 21.3665V13.0155C55.2978 11.9622 55.2225 11.1346 55.0721 10.4575C54.9216 9.7804 54.5454 9.25376 54.094 8.80235C53.2664 8.05 52.1379 7.67383 50.558 7.67383C48.9781 7.67383 48.9028 7.74906 48.1505 7.97476C47.3981 8.20047 46.7963 8.50141 46.3449 8.80235C45.8934 9.10329 45.5173 9.40423 45.2916 9.7804C45.0659 10.0813 44.9154 10.5327 44.9154 10.9841C44.9154 11.4356 45.0659 11.887 45.3668 12.2631C45.6677 12.6393 46.0439 12.7898 46.6458 12.7898C47.2477 12.7898 47.5486 12.6393 47.8495 12.3384C48.1505 12.0374 48.301 11.6613 48.301 11.1346C48.301 10.608 48.1505 10.2318 47.9248 9.93087C47.6238 9.62993 47.3229 9.40422 46.9467 9.32899C47.5486 8.57664 48.5267 8.27571 49.8809 8.27571C51.2351 8.27571 51.4608 8.50141 51.9122 8.95282C52.4389 9.40422 52.6646 10.1566 52.6646 11.3603V13.2412C52.6646 13.7678 52.3636 14.2192 51.837 14.5202C51.3103 14.8211 50.4828 15.1973 49.3542 15.5735C48.2257 15.9496 47.3981 16.3258 46.721 16.6267C46.0439 17.0029 45.442 17.4543 44.9906 17.981C44.5392 18.5829 44.2383 19.3352 44.2383 20.1628C44.2383 20.9904 44.5392 22.1941 45.1411 22.796C45.743 23.3979 46.721 23.774 47.9248 23.774C49.1285 23.774 49.8056 23.5483 50.558 23.1722C51.3103 22.796 51.9875 22.1189 52.6646 21.0656C52.6646 21.8932 52.815 22.5703 53.2664 23.0217C53.6426 23.4731 54.3197 23.774 55.2978 23.774C56.2758 23.774 56.3511 23.6988 56.7272 23.5483C57.1034 23.3979 57.5548 23.0969 58.0815 22.7208L57.7805 22.1941L57.6301 22.1189ZM52.6646 20.238C51.7618 21.7427 50.558 22.4951 49.279 22.4951C48 22.4951 48 22.2694 47.5486 21.8179C47.0972 21.3665 46.8715 20.6894 46.8715 19.7866C46.8715 18.8838 47.022 18.3571 47.3981 17.8305C47.7743 17.3039 48.1505 16.9277 48.6019 16.6267C49.0533 16.3258 49.6552 16.0249 50.4828 15.7239C51.1599 15.423 51.6113 15.1973 51.9875 14.9716C52.2884 14.8211 52.5893 14.5954 52.7398 14.2945V20.1628L52.6646 20.238Z" fill="white"/>
<path d="M70.8715 10.0815C70.8715 10.6082 70.721 11.0596 70.4201 11.4358C70.1191 11.8119 69.6677 11.9624 69.1411 11.9624C68.6145 11.9624 68.3135 11.8119 68.0126 11.511C67.7116 11.2101 67.5612 10.8339 67.5612 10.3825C67.5612 9.93107 67.9373 9.17872 68.6145 8.80255C68.464 8.57684 68.2383 8.50161 68.0126 8.50161C67.2602 8.50161 66.5079 8.80255 65.906 9.40443C65.2289 10.0063 64.7775 10.7587 64.4013 11.6615C64.0251 12.5643 63.8747 13.3919 63.8747 14.1442V20.4639C63.8747 21.3667 64.1004 22.0439 64.7022 22.42C65.2289 22.7962 66.0565 22.9467 67.1098 22.9467V23.5485H66.3574C64.3261 23.4733 63.0471 23.3981 62.4452 23.3981C61.8433 23.3981 60.7148 23.3981 58.9092 23.5485V22.9467C59.7368 22.9467 60.3386 22.7962 60.6396 22.4953C61.0158 22.1943 61.1662 21.5924 61.1662 20.8401V11.4358C61.1662 10.5329 61.0158 9.85584 60.6396 9.40443C60.2634 9.02825 59.7368 8.80255 58.9092 8.80255V8.20067C59.5111 8.20067 60.1882 8.27591 60.79 8.27591C62.069 8.27591 63.0471 8.12543 63.8747 7.8245V11.5862C64.2508 10.6082 64.7775 9.70536 65.6051 8.95302C66.4327 8.20067 67.2602 7.74927 68.2383 7.74927C69.2163 7.74927 69.6677 7.97497 70.1944 8.42637C70.721 8.87778 70.9467 9.47966 70.9467 10.0815H70.8715Z" fill="white"/>
<path d="M84.7896 19.7869C84.4134 20.9154 83.8115 21.8934 82.9087 22.721C82.0059 23.5486 80.8021 23.9248 79.2975 23.9248C77.7928 23.9248 76.9652 23.6238 75.9119 22.9467C74.9338 22.3448 74.1063 21.3668 73.5044 20.163C72.9025 18.9593 72.6016 17.5298 72.6016 15.9499C72.6016 14.37 72.9025 12.8653 73.5044 11.6615C74.1063 10.3825 74.9338 9.40446 75.9871 8.72735C77.0404 7.97501 78.2442 7.67407 79.5984 7.67407C80.9526 7.67407 82.0811 7.97501 83.0592 8.65213C83.962 9.254 84.4886 10.0063 84.4886 10.9844C84.4886 11.9624 84.3382 11.8872 84.0372 12.1882C83.7363 12.4891 83.3601 12.6396 82.9087 12.6396C82.4573 12.6396 82.0811 12.4891 81.705 12.2634C81.404 11.9625 81.2535 11.6615 81.2535 11.1349C81.2535 10.6082 81.3288 10.3825 81.6297 10.0816C81.8554 9.78064 82.1564 9.63017 82.5325 9.4797C82.3068 9.10353 82.0059 8.80259 81.4793 8.57689C80.9526 8.35118 80.426 8.20071 79.8241 8.20071C79.2222 8.20071 78.3946 8.42642 77.7175 8.87783C77.1156 9.32924 76.589 10.1568 76.1376 11.2101C75.7614 12.2634 75.5357 13.7681 75.5357 15.4985C75.5357 17.2289 75.9119 19.7869 76.7395 20.9154C77.567 22.0439 78.5451 22.5705 79.8241 22.5705C81.1031 22.5705 81.4793 22.3448 82.2316 21.8182C82.9839 21.2915 83.6611 20.5392 84.1125 19.4859L84.7143 19.7116L84.7896 19.7869Z" fill="white"/>
<path d="M102.997 22.8711V23.4729C101.191 23.3977 99.9876 23.3225 99.3857 23.3225C98.7839 23.3225 97.7306 23.3225 96.0002 23.4729V22.8711C96.7525 22.8711 97.2792 22.7206 97.5049 22.4197C97.8058 22.1187 97.9563 21.5168 97.9563 20.7645V12.1125C97.9563 10.984 97.8058 10.1564 97.5049 9.55452C97.2039 8.95265 96.5268 8.65171 95.5488 8.65171C94.5707 8.65171 94.0441 8.87741 93.367 9.32882C92.7651 9.78022 92.2385 10.4573 91.8623 11.2849C91.4861 12.1125 91.3356 13.0153 91.3356 14.0686V20.7645C91.3356 21.5921 91.4861 22.1187 91.787 22.4197C92.088 22.7206 92.6146 22.8711 93.2917 22.8711V23.4729C91.6366 23.3977 90.5081 23.3225 89.9062 23.3225C89.3043 23.3225 88.1758 23.3225 86.2949 23.4729V22.8711C87.1225 22.8711 87.7244 22.7206 88.1005 22.4197C88.4015 22.1187 88.6272 21.5168 88.6272 20.7645V3.68622C88.6272 2.7834 88.4767 2.10629 88.1005 1.65488C87.7244 1.20348 87.1977 1.053 86.2949 1.053V0.451124C86.972 0.451124 87.5739 0.526364 88.1758 0.526364C89.4548 0.526364 90.4328 0.37589 91.2604 0.0749512V11.2849C91.787 10.0059 92.4642 9.10311 93.367 8.57647C94.2698 7.97459 95.2478 7.7489 96.3764 7.7489C97.5049 7.7489 98.8591 8.12507 99.5362 8.87742C99.9124 9.25359 100.213 9.78023 100.364 10.3821C100.514 10.984 100.59 11.8116 100.59 12.7896V20.7645C100.59 21.5921 100.74 22.1187 101.116 22.4197C101.492 22.7206 102.019 22.8711 102.922 22.8711H102.997Z" fill="white"/>
<path d="M109.693 2.5579C109.693 3.08454 109.543 3.53595 109.092 3.91213C108.715 4.2883 108.264 4.51401 107.737 4.51401C107.211 4.51401 106.759 4.36353 106.383 3.91213C106.007 3.53595 105.781 3.08454 105.781 2.5579C105.781 2.03126 105.932 1.57985 106.383 1.20367C106.759 0.827501 107.211 0.601807 107.737 0.601807C108.264 0.601807 108.715 0.752267 109.092 1.20367C109.468 1.57985 109.693 2.03126 109.693 2.5579Z" fill="white"/>
<path d="M111.573 22.8712V23.4731C109.767 23.3978 108.488 23.3226 107.962 23.3226C107.435 23.3226 106.156 23.3226 104.351 23.4731V22.8712C105.178 22.8712 105.78 22.7207 106.081 22.4198C106.457 22.1188 106.608 21.517 106.608 20.7646V11.3603C106.608 10.4575 106.457 9.78035 106.081 9.32894C105.705 8.95277 105.178 8.72706 104.351 8.72706V8.1252C104.952 8.1252 105.63 8.20042 106.231 8.20042C107.51 8.20042 108.488 8.04996 109.316 7.74902V20.6894C109.316 21.517 109.467 22.0436 109.843 22.3445C110.219 22.6455 110.746 22.796 111.648 22.796L111.573 22.8712Z" fill="white"/>
<path d="M123.159 19.862C122.632 22.6457 121.353 23.9999 119.247 23.9999C117.14 23.9999 118.043 23.9247 117.592 23.7742C117.14 23.6237 116.764 23.398 116.463 23.0219C116.162 22.6457 115.711 22.0438 115.56 21.3667C115.41 20.7648 115.335 19.862 115.335 18.8087V8.80251H112.476V8.20063H115.335V3.61132C116.463 3.61132 117.366 3.46085 118.043 3.15991V8.1254H122.482V8.72727H118.043V20.3134C118.043 21.2162 118.193 21.8933 118.57 22.2695C118.871 22.6457 119.397 22.8714 119.999 22.8714C120.601 22.8714 121.128 22.6457 121.579 22.119C122.03 21.5924 122.407 20.7648 122.708 19.6363L123.309 19.7868L123.159 19.862Z" fill="white"/>
<path d="M136.175 19.7113C135.649 20.7646 135.047 21.5922 134.294 22.0436C133.542 22.495 132.714 22.7207 131.736 22.7207C130.758 22.7207 130.232 22.495 129.479 21.9684C128.727 21.4417 128.2 20.6894 127.749 19.7113C127.297 18.7333 127.072 17.6048 127.072 16.2505C127.072 14.8963 127.072 14.8963 127.147 14.3697H136.551C136.551 12.1126 136.1 10.4575 135.122 9.40418C134.144 8.3509 132.79 7.74902 130.984 7.74902C129.178 7.74902 128.426 8.12519 127.448 8.8023C126.395 9.47942 125.642 10.4575 125.116 11.7365C124.589 13.0154 124.288 14.5201 124.288 16.2505C124.288 17.9809 124.589 19.1095 125.116 20.3132C125.642 21.517 126.47 22.4198 127.523 23.0216C128.576 23.6988 129.78 23.9997 131.21 23.9997C132.639 23.9997 133.768 23.6235 134.821 22.796C135.799 22.0436 136.476 21.0656 136.852 19.937L136.25 19.7113H136.175ZM128.501 9.62989C129.178 8.72707 130.006 8.27566 130.909 8.27566C131.812 8.27566 132.564 8.8023 133.091 9.85558C133.617 10.9089 133.843 12.1879 133.768 13.7678H127.222C127.373 11.9622 127.824 10.6079 128.501 9.70512V9.62989Z" fill="white"/>
<path d="M165.442 19.862C164.915 22.6457 163.637 23.9999 161.53 23.9999C159.423 23.9999 160.251 23.9247 159.875 23.7742C159.423 23.6237 159.047 23.398 158.671 23.0219C158.22 22.5704 157.919 22.0438 157.768 21.3667C157.618 20.7648 157.543 19.862 157.543 18.8087V8.80251H154.684V8.20063H157.543V3.61132C158.671 3.61132 159.574 3.46085 160.251 3.15991V8.1254H164.69V8.72727H160.251V20.3134C160.251 21.2162 160.401 21.8933 160.778 22.2695C161.079 22.6457 161.605 22.8714 162.207 22.8714C162.809 22.8714 163.336 22.6457 163.787 22.119C164.238 21.5924 164.615 20.7648 164.916 19.6363L165.517 19.7868L165.442 19.862Z" fill="white"/>
<path d="M181.842 22.9464V23.5483C181.24 23.5483 180.638 23.4731 179.961 23.4731C178.682 23.4731 177.628 23.6235 176.801 23.8492V20.3132C176.349 21.5922 175.672 22.495 174.77 23.0216C173.867 23.6235 172.964 23.9245 171.911 23.9245C170.857 23.9245 169.503 23.5483 168.826 22.796C168.45 22.4198 168.224 21.8931 168.074 21.2913C167.923 20.6894 167.848 19.8618 167.848 18.8837V11.3603C167.848 10.4575 167.697 9.78035 167.321 9.32894C166.945 8.95277 166.418 8.72706 165.516 8.72706V8.1252C166.118 8.1252 166.795 8.20042 167.396 8.20042C168.675 8.20042 169.729 8.04996 170.481 7.74902V19.5609C170.481 20.3132 170.481 20.9151 170.632 21.4417C170.707 21.8931 170.933 22.2693 171.233 22.5702C171.534 22.8712 172.061 23.0216 172.738 23.0216C173.415 23.0216 174.168 22.7959 174.77 22.2693C175.371 21.8179 175.898 21.1408 176.199 20.3132C176.575 19.4856 176.726 18.5828 176.726 17.6048V11.4355C176.726 10.5327 176.575 9.85559 176.199 9.40418C175.823 9.02801 175.296 8.8023 174.393 8.8023V8.20042C174.995 8.20042 175.597 8.27566 176.274 8.27566C177.553 8.27566 178.531 8.12519 179.359 7.82425V20.3884C179.359 21.2913 179.509 21.9684 179.885 22.4198C180.262 22.8712 180.788 23.0216 181.616 23.0216L181.842 22.9464Z" fill="white"/>
<path d="M195.459 10.0813C195.459 10.6079 195.309 11.0593 195.008 11.4355C194.707 11.8117 194.256 11.9622 193.804 11.9622C193.353 11.9622 192.977 11.8117 192.676 11.5108C192.375 11.2098 192.224 10.8336 192.224 10.3822C192.224 9.93083 192.6 9.17848 193.278 8.8023C193.127 8.5766 192.901 8.50137 192.676 8.50137C191.923 8.50137 191.171 8.80231 190.569 9.40418C189.892 10.0061 189.441 10.7584 189.064 11.6612C188.688 12.564 188.538 13.3916 188.538 14.144V20.4637C188.538 21.3665 188.764 22.0436 189.29 22.4198C189.817 22.796 190.644 22.9464 191.698 22.9464V23.5483H190.945C188.914 23.4731 187.635 23.3978 187.033 23.3978C186.431 23.3978 185.378 23.3978 183.497 23.5483V22.9464C184.325 22.9464 184.927 22.7959 185.227 22.495C185.604 22.1941 185.754 21.5922 185.754 20.8398V11.4355C185.754 10.5327 185.604 9.85559 185.227 9.40418C184.851 9.02801 184.325 8.8023 183.497 8.8023V8.20042C184.099 8.20042 184.776 8.27566 185.378 8.27566C186.657 8.27566 187.71 8.12519 188.538 7.82425V11.586C188.914 10.6079 189.441 9.70512 190.268 8.95277C191.021 8.20042 191.923 7.74902 192.901 7.74902C193.879 7.74902 194.331 7.97472 194.858 8.42613C195.384 8.87754 195.61 9.47941 195.61 10.0813H195.459Z" fill="white"/>
</svg>
